#!OML:ASF E:\Steps\Project 1\Capture day 1\Session 2\Subject.ASF
:FULLY-SPECIFIED
:DEGREES
263
root 15.2468 16.9543 15.9913 -167.523 2.53177 172.856
lowerback -28.5096 -0.65168 -3.09335
upperback 1.78402 0.5661 -0.713397
thorax 17.3039 0.0941112 1.17763
lowerneck -1.61232 2.05822 -1.35511
upperneck 22.9327 5.07912 0.261701
head 7.24679 3.14585 0.750566
rclavicle 1.03865e-014 3.97569e-015
rhumerus -34.74 -10.9407 -77.9015
rradius 40.076
rwrist -4.25737
rhand -6.43603 -53.2946
rfingers 7.12502
rthumb 19.4132 277.655
lclavicle 1.03865e-014 3.97569e-015
lhumerus -39.547 12.3441 72.123
lradius 20.9392
lwrist -5.93731
lhand -17.6694 -13.25
lfingers 7.12502
lthumb 8.58935 16.5553
rfemur 2.84876 10.7073 14.0635
rtibia 25.4976
rfoot -33.0524 -7.86261
rtoes -31.4684
lfemur -48.5856 -5.20907 -7.36877
ltibia 18.4887
lfoot 22.0175 9.31312
ltoes -19.2018
264
root 15.1967 16.935 15.9063 -167.335 2.5296 173.007
lowerback -28.1554 -0.656419 -3.10094
upperback 1.66799 0.549064 -0.719166
thorax 16.9887 0.0942439 1.16761
lowerneck -1.6275 2.07611 -1.26084
upperneck 22.8611 5.05608 0.35745
head 7.22493 3.14409 0.762248
rclavicle 4.96962e-016 -3.18055e-015
rhumerus -34.7414 -10.8822 -78.1074
rradius 40.3766
rwrist -4.35266
rhand -6.42689 -53.4767
rfingers 7.12502
rthumb 19.4219 277.473
lclavicle 4.96962e-016 -3.18055e-015
lhumerus -39.7347 12.2315 72.0248
lradius 21.1891
lwrist -5.72726
lhand -17.4174 -13.1345
lfingers 7.12502
lthumb 8.83258 16.6607
rfemur 3.05869 10.7177 14.0973
rtibia 25.4111
rfoot -32.8857 -8.02875
rtoes -31.7908
lfemur -48.6307 -4.99594 -7.62455
ltibia 18.7334
lfoot 22.7363 8.92763
ltoes -19.9346
265
root 15.136 16.9148 15.8091 -167.138 2.69528 173.141
lowerback -28.0417 -0.592515 -3.0364
upperback 1.65606 0.608881 -0.741821
thorax 16.9168 0.127713 1.13076
lowerneck -1.78237 1.30367 -1.34305
upperneck 23.7761 4.13531 0.404606
head 7.55937 2.74292 0.758518
rclavicle 1.98785e-015 -7.15625e-015
rhumerus -34.5724 -10.74 -78.3548
rradius 40.5908
rwrist -4.67656
rhand -6.41518 -53.5431
rfingers 7.12502
rthumb 19.4332 277.408
lclavicle 1.98785e-015 -7.15625e-015
lhumerus -39.7411 12.5399 71.8107
lradius 21.2241
lwrist -5.90734
lhand -17.2303 -13.1734
lfingers 7.12502
lthumb 9.01315 16.6141
rfemur 3.20509 10.6764 13.928
rtibia 25.3592
rfoot -32.7155 -8.00104
rtoes -31.9045
lfemur -48.6199 -5.03384 -7.70668
ltibia 19.0199
lfoot 23.2178 8.86467
ltoes -21.8578
266
root 15.0793 16.8924 15.7105 -166.93 2.94049 173.265
lowerback -28.0079 -0.548175 -3.07265
upperback 1.69876 0.674053 -0.739716
thorax 16.9485 0.149563 1.17889
lowerneck -1.78551 1.33081 -1.37348
upperneck 23.4308 4.06287 0.553664
head 7.44088 2.69442 0.797525
rclavicle 7.45443e-016 1.82882e-014
rhumerus -34.3808 -10.615 -78.5804
rradius 40.8588
rwrist -4.77706
rhand -6.41353 -53.6086
rfingers 7.12502
rthumb 19.4348 277.343
lclavicle 7.45443e-016 1.82882e-014
lhumerus -39.6744 12.854 71.6418
lradius 21.2368
lwrist -5.95979
lhand -17.0814 -13.2268
lfingers 7.12502
lthumb 9.15684 16.5544
rfemur 3.44376 10.7271 13.7651
rtibia 25.04
rfoot -32.4393 -7.67949
rtoes -31.1133
lfemur -48.6238 -5.01477 -7.82436
ltibia 19.5185
lfoot 23.653 8.58551
ltoes -25.0382
267
root 15.0264 16.872 15.6142 -166.575 3.16827 173.369
lowerback -27.9913 -0.537162 -3.17735
upperback 1.6817 0.723948 -0.736352
thorax 16.916 0.163034 1.26035
lowerneck -1.86345 1.68916 -1.47117
upperneck 22.7811 4.38459 0.774527
head 7.22885 2.81553 0.889928
rclavicle 5.1684e-015 -1.59028e-014
rhumerus -34.2744 -10.4475 -78.7633
rradius 41.2057
rwrist -4.56655
rhand -6.42362 -53.893
rfingers 7.12502
rthumb 19.4251 277.057
lclavicle 5.1684e-015 -1.59028e-014
lhumerus -39.6317 12.9928 71.5721
lradius 21.2622
lwrist -5.92203
lhand -17.2327 -13.48
lfingers 7.12502
lthumb 9.0108 16.3076
rfemur 3.5301 10.7372 13.5828
rtibia 24.7477
rfoot -32.1929 -7.62474
rtoes -31.118
lfemur -48.722 -4.99161 -7.95123
ltibia 19.9858
lfoot 24.0662 8.1613
ltoes -27.5668
268
root 14.9689 16.8534 15.5204 -166.184 3.3805 173.493
lowerback -27.9357 -0.494958 -3.19865
upperback 1.65305 0.795709 -0.7894
thorax 16.8514 0.197604 1.24226
lowerneck -1.87894 1.89259 -1.54484
upperneck 22.3136 4.53074 1.00677
head 7.06827 2.86953 0.973469
rclavicle 7.7526e-015 9.54166e-015
rhumerus -34.0706 -10.2053 -79.04
rradius 41.3528
rwrist -4.60607
rhand -6.44384 -54.0733
rfingers 7.12502
rthumb 19.4056 276.875
lclavicle 7.7526e-015 9.54166e-015
lhumerus -39.578 12.9887 71.5044
lradius 21.3793
lwrist -5.75989
lhand -17.509 -13.1589
lfingers 7.12502
lthumb 8.74421 16.64
rfemur 3.39834 10.7499 13.4053
rtibia 24.8702
rfoot -32.1946 -7.87155
rtoes -31.5735
lfemur -48.8501 -5.08726 -8.01244
ltibia 20.5297
lfoot 23.4012 7.57564
ltoes -30.2483
